<svg width="24" height="24" viewBox="0 0 24 24" fill="none" xmlns="http://www.w3.org/2000/svg">
<path d="M12.816 12.6476L17.6693 12.6369C17.84 12.6369 17.968 12.5085 17.9787 12.3265L18 11.727C18 11.5558 17.872 11.4273 17.6907 11.4166L12.8053 11.4166C12.6987 11.4166 12.6027 11.3202 12.6027 11.2132L12.624 6.31044C12.624 6.13916 12.496 6.0107 12.3147 6H11.696C11.5253 6 11.3973 6.12846 11.3867 6.31044V11.1918C11.3867 11.2988 11.2907 11.3952 11.184 11.3952L6.30933 11.4059C6.13867 11.4059 6.01067 11.5343 6 11.7163L6 12.3372C6 12.5085 6.128 12.6369 6.30933 12.6476H11.1733C11.28 12.6476 11.376 12.744 11.376 12.851V17.6896C11.376 17.8608 11.504 17.9893 11.6853 18H12.304C12.4747 18 12.6027 17.8715 12.6133 17.6896V12.851C12.6133 12.7226 12.6987 12.6369 12.816 12.6476Z" fill="white"/>
<path d="M11.376 17.6895C11.376 17.8393 11.4741 17.9561 11.6201 17.9902L11.6855 18H12.3037C12.4744 18 12.6026 17.8714 12.6133 17.6895V12.8506C12.6135 12.7385 12.6787 12.6595 12.7734 12.6484L12.8164 12.6475L17.6689 12.6367C17.8185 12.6367 17.9359 12.5384 17.9697 12.3916L17.9785 12.3262L18 11.7266C17.9998 11.5555 17.8716 11.4277 17.6904 11.417H12.8057L12.7656 11.4121C12.6889 11.3949 12.6245 11.3299 12.6074 11.2529L12.6025 11.2129L12.624 6.31055C12.624 6.13927 12.4958 6.0107 12.3145 6H11.6963V5.59961H12.3262L12.3379 5.60059C12.71 5.62256 13.0244 5.90751 13.0244 6.31055V6.3125L13.0039 11.0166H17.7021L17.7139 11.0176L17.8506 11.0371C18.1598 11.1118 18.4002 11.3741 18.4004 11.7266V11.7344L18.3994 11.7412L18.3779 12.3408V12.3496C18.3562 12.72 18.0738 13.0361 17.6689 13.0361L17.6699 13.0371L13.0137 13.0469V17.7012L13.0127 17.7129C12.991 18.0832 12.7086 18.4004 12.3037 18.4004H11.6738L11.6621 18.3994C11.2899 18.3774 10.9756 18.0925 10.9756 17.6895V13.0479H6.29785L6.28613 13.0469C5.96047 13.0276 5.67934 12.8073 5.61426 12.4824L5.59961 12.3369V11.7051L5.60059 11.6934L5.62109 11.5566C5.69526 11.2484 5.95489 11.0062 6.30859 11.0059L10.9863 10.9951V6.29883L10.9873 6.28711C11.009 5.91677 11.2914 5.59961 11.6963 5.59961V6C11.5256 6 11.3974 6.12857 11.3867 6.31055V11.1914L11.3828 11.2314C11.363 11.3216 11.2769 11.3955 11.1836 11.3955L6.30957 11.4062L6.24707 11.4121C6.10833 11.4394 6.00932 11.5577 6 11.7168V12.3369C6 12.4869 6.09803 12.6046 6.24414 12.6387L6.30957 12.6475H11.1729C11.2794 12.6475 11.3757 12.7437 11.376 12.8506V17.6895Z" fill="white"/>
</svg>
