<svg width="24" height="24" viewBox="0 0 24 24" fill="none" xmlns="http://www.w3.org/2000/svg">
<path d="M17.0824 3.63684H6.88315C5.85489 3.63684 4.96558 4.58173 4.96558 5.55442H4.32639C3.60382 5.55442 3.048 6.13803 3.048 6.86059C3.048 7.58315 3.60382 8.13897 4.32639 8.13897H4.96558V10.7235H4.32639C3.60382 10.7235 3.048 11.2793 3.048 12.0019C3.048 12.7245 3.60382 13.2803 4.32639 13.2803H4.96558V15.8649H4.32639C3.60382 15.8649 3.048 16.4485 3.048 17.1432C3.048 17.8658 3.60382 18.4216 4.32639 18.4216H4.96558C4.96558 19.7 5.85489 20.3392 6.88315 20.3392H17.0824C18.1107 20.3392 19 19.4499 19 18.4216V5.55442C18.9722 4.52615 18.1107 3.63684 17.0824 3.63684ZM8.21712 12.0853L8.80073 11.5017C8.96747 11.3349 9.21759 11.3349 9.38434 11.5017L10.8295 12.919L14.3867 9.38956C14.5535 9.22282 14.8036 9.22282 14.9703 9.38956L15.5539 9.97318C15.6929 10.1399 15.6929 10.4178 15.5539 10.5568L11.3853 14.6698C11.2185 14.8366 11.024 14.8922 10.8017 14.8922C10.5793 14.8922 10.3848 14.8366 10.2181 14.6698L8.21712 12.6689C8.02258 12.5021 8.02258 12.252 8.21712 12.0853Z" fill="#2E2E2E"/>
</svg>
