<svg width="24" height="24" viewBox="0 0 24 24" fill="none" xmlns="http://www.w3.org/2000/svg">
<path d="M15.4229 8.15682C15.4829 8.367 15.633 8.51712 15.8432 8.57717L16.5038 8.75732C16.6239 8.78735 16.774 8.7273 16.834 8.6072L18.2452 6.17517C18.5755 5.60469 18.3954 5.39452 17.7949 5.72479L15.3628 7.13597C15.2427 7.19602 15.1827 7.34615 15.2127 7.46625L15.4229 8.15682Z" fill="white"/>
<path d="M7.166 8.60715C7.22605 8.72726 7.37617 8.78731 7.49627 8.75728L8.15682 8.57713C8.367 8.51708 8.51712 8.36695 8.57717 8.15678L8.75732 7.49623C8.78735 7.37613 8.7273 7.226 8.6072 7.16595L6.17517 5.75478C5.60469 5.4245 5.39452 5.60465 5.72479 6.20515L7.166 8.60715Z" fill="white"/>
<path d="M16.834 15.3928C16.774 15.2727 16.6238 15.2127 16.5037 15.2427L15.8432 15.4228C15.633 15.4829 15.4829 15.633 15.4228 15.8432L15.2427 16.5037C15.2127 16.6238 15.2727 16.774 15.3928 16.834L17.8248 18.2452C18.3953 18.5755 18.6055 18.3953 18.2752 17.7948L16.834 15.3928Z" fill="white"/>
<path d="M8.57714 15.8432C8.51709 15.633 8.36697 15.4829 8.1568 15.4228L7.49624 15.2427C7.37614 15.2127 7.22602 15.2727 7.16597 15.3928L5.75479 17.8248C5.42452 18.3953 5.60467 18.6055 6.20517 18.2752L8.63719 16.864C8.75729 16.804 8.81734 16.6539 8.78732 16.5338L8.57714 15.8432Z" fill="white"/>
<path d="M20.5271 11.6997L14.372 10.0484C14.1618 9.98832 14.0117 9.8382 13.9516 9.62802L12.3003 3.47289C12.1201 2.84237 11.8499 2.84237 11.6697 3.47289L10.0183 9.62802C9.9583 9.8382 9.80817 9.98832 9.598 10.0484L3.47289 11.6997C2.84237 11.8799 2.84237 12.1501 3.47289 12.3303L9.62802 13.9817C9.8382 14.0417 9.98832 14.1918 10.0484 14.402L11.6997 20.5271C11.8799 21.1576 12.1501 21.1576 12.3303 20.5271L13.9817 14.372C14.0417 14.1618 14.1918 14.0117 14.402 13.9516L20.5271 12.3003C21.1576 12.1501 21.1576 11.8499 20.5271 11.6997ZM12 13.5013C11.1593 13.5013 10.4987 12.8407 10.4987 12C10.4987 11.1593 11.1593 10.4987 12 10.4987C12.8407 10.4987 13.5013 11.1593 13.5013 12C13.5013 12.8407 12.8407 13.5013 12 13.5013Z" fill="white"/>
<path d="M12 13.5013C11.1593 13.5013 10.4987 12.8407 10.4987 12C10.4987 11.1593 11.1593 10.4987 12 10.4987C12.8407 10.4987 13.5013 11.1593 13.5013 12C13.5013 12.8407 12.8407 13.5013 12 13.5013Z" fill="white"/>
</svg>
