<svg width="24" height="24" viewBox="0 0 24 24" fill="none" xmlns="http://www.w3.org/2000/svg">
<path d="M18.24 10.08H5.76C5.496 10.08 5.28 10.296 5.28 10.56V17.76C5.28 18.552 5.928 19.2 6.72 19.2H17.28C18.072 19.2 18.72 18.552 18.72 17.76V10.56C18.72 10.296 18.504 10.08 18.24 10.08ZM9.6 16.8C9.6 17.064 9.384 17.28 9.12 17.28H8.16C7.896 17.28 7.68 17.064 7.68 16.8V15.84C7.68 15.576 7.896 15.36 8.16 15.36H9.12C9.384 15.36 9.6 15.576 9.6 15.84V16.8ZM12.96 16.8C12.96 17.064 12.744 17.28 12.48 17.28H11.52C11.256 17.28 11.04 17.064 11.04 16.8V15.84C11.04 15.576 11.256 15.36 11.52 15.36H12.48C12.744 15.36 12.96 15.576 12.96 15.84V16.8ZM12.96 13.44C12.96 13.704 12.744 13.92 12.48 13.92H11.52C11.256 13.92 11.04 13.704 11.04 13.44V12.48C11.04 12.216 11.256 12 11.52 12H12.48C12.744 12 12.96 12.216 12.96 12.48V13.44ZM16.32 13.44C16.32 13.704 16.104 13.92 15.84 13.92H14.88C14.616 13.92 14.4 13.704 14.4 13.44V12.48C14.4 12.216 14.616 12 14.88 12H15.84C16.104 12 16.32 12.216 16.32 12.48V13.44ZM17.28 6.23999H16.08V5.75999C16.08 5.23199 15.648 4.79999 15.12 4.79999C14.592 4.79999 14.16 5.23199 14.16 5.75999V6.23999H9.84V5.75999C9.84 5.23199 9.408 4.79999 8.88 4.79999C8.352 4.79999 7.92 5.23199 7.92 5.75999V6.23999H6.72C5.928 6.23999 5.28 6.88799 5.28 7.67999V8.15999C5.28 8.42399 5.496 8.63999 5.76 8.63999H18.24C18.504 8.63999 18.72 8.42399 18.72 8.15999V7.67999C18.72 6.88799 18.072 6.23999 17.28 6.23999Z" fill="white"/>
</svg>
