<svg width="24" height="24" viewBox="0 0 24 24" fill="none" xmlns="http://www.w3.org/2000/svg">
<path d="M5.4 4.728H10.2C10.536 4.728 10.8 4.992 10.8 5.328V18.504C10.8 18.84 10.536 19.104 10.2 19.104H5.4C5.064 19.104 4.8 18.84 4.8 18.504V5.328C4.8 4.992 5.064 4.728 5.4 4.728Z" fill="white"/>
<path d="M13.8 4.70401H18.6C18.936 4.70401 19.2 4.96801 19.2 5.30401V10.08C19.2 10.416 18.936 10.68 18.6 10.68H13.8C13.464 10.68 13.2 10.416 13.2 10.08V5.30401C13.2 4.96801 13.464 4.70401 13.8 4.70401Z" fill="white"/>
<path d="M13.8 13.104H18.6C18.936 13.104 19.2 13.368 19.2 13.704V18.48C19.2 18.816 18.936 19.08 18.6 19.08H13.8C13.464 19.08 13.2 18.816 13.2 18.48V13.704C13.2 13.392 13.464 13.104 13.8 13.104Z" fill="white"/>
</svg>
