<svg width="24" height="24" viewBox="0 0 24 24" fill="none" xmlns="http://www.w3.org/2000/svg">
<path d="M17.52 10.08H14.16C13.368 10.08 12.72 9.43199 12.72 8.63999V5.27999C12.72 5.01599 12.504 4.79999 12.24 4.79999H7.44C6.648 4.79999 6 5.44799 6 6.23999V17.76C6 18.552 6.648 19.2 7.44 19.2H16.56C17.352 19.2 18 18.552 18 17.76V10.56C18 10.296 17.784 10.08 17.52 10.08Z" fill="white"/>
<path d="M17.904 8.06399L14.736 4.89599C14.664 4.82399 14.592 4.79999 14.496 4.79999C14.304 4.79999 14.16 4.94399 14.16 5.13599V7.67999C14.16 8.20799 14.592 8.63999 15.12 8.63999H17.664C17.856 8.63999 18 8.49599 18 8.30399C18 8.20799 17.976 8.13599 17.904 8.06399Z" fill="white"/>
</svg>
