<svg width="24" height="24" viewBox="0 0 24 24" fill="none" xmlns="http://www.w3.org/2000/svg">
<path d="M13.0063 4.48935L11.9992 9.3551C11.9939 9.39558 11.9981 9.43672 12.0112 9.47535C12.0244 9.51399 12.0463 9.54909 12.0752 9.57795C12.1041 9.60681 12.1393 9.62866 12.1779 9.64183C12.2166 9.65499 12.2578 9.65911 12.2984 9.65388H17.513C17.5993 9.66154 17.6825 9.69004 17.7553 9.73693C17.8281 9.78383 17.8884 9.8477 17.931 9.92305C17.9736 9.9984 17.9972 10.083 17.9998 10.1694C18.0023 10.2559 17.9838 10.3417 17.9458 10.4195L12.2663 19.7295C12.2157 19.8292 12.1328 19.9088 12.0311 19.9553C11.9293 20.0017 11.8148 20.0124 11.7062 19.9854C11.5976 19.9585 11.5014 19.8955 11.4333 19.8069C11.3652 19.7182 11.3293 19.6091 11.3313 19.4974L12.2242 13.7669C12.2242 13.5669 12.0585 13.6336 11.8582 13.6336L6.50136 13.634C6.13537 13.634 5.86823 13.1005 6.06859 12.767L12.074 4.25726C12.1268 4.16126 12.2099 4.0854 12.3105 4.04153C12.411 3.99766 12.5232 3.98824 12.6296 4.01473C12.7361 4.04123 12.8308 4.10216 12.8989 4.18801C12.967 4.27386 13.0048 4.37981 13.0063 4.48935Z" fill="white"/>
</svg>
