<svg width="24" height="24" viewBox="0 0 24 24" fill="none" xmlns="http://www.w3.org/2000/svg">
    <path d="M17.2176 6.23999H16.0176V5.75999C16.0176 5.50538 15.9164 5.2612 15.7364 5.08117C15.5564 4.90113 15.3122 4.79999 15.0576 4.79999C14.803 4.79999 14.5588 4.90113 14.3788 5.08117C14.1987 5.2612 14.0976 5.50538 14.0976 5.75999V6.23999H9.77759V5.75999C9.77759 5.50538 9.67645 5.2612 9.49641 5.08117C9.31638 4.90113 9.0722 4.79999 8.81759 4.79999C8.56298 4.79999 8.3188 4.90113 8.13877 5.08117C7.95873 5.2612 7.85759 5.50538 7.85759 5.75999V6.23999H6.65759C6.27568 6.23999 5.90941 6.3917 5.63936 6.66175C5.3693 6.93181 5.21759 7.29808 5.21759 7.67999V8.15999C5.21759 8.28729 5.26816 8.40938 5.35818 8.4994C5.4482 8.58942 5.57029 8.63999 5.69759 8.63999H18.1776C18.3049 8.63999 18.427 8.58942 18.517 8.4994C18.607 8.40938 18.6576 8.28729 18.6576 8.15999V7.67999C18.6576 7.29808 18.5059 6.93181 18.2358 6.66175C17.9658 6.3917 17.5995 6.23999 17.2176 6.23999ZM18.1776 10.08C18.3049 10.08 18.427 10.1306 18.517 10.2206C18.607 10.3106 18.6576 10.4327 18.6576 10.56V17.76C18.6576 18.1419 18.5059 18.5082 18.2358 18.7782C17.9658 19.0483 17.5995 19.2 17.2176 19.2H6.65759C6.27568 19.2 5.90941 19.0483 5.63936 18.7782C5.3693 18.5082 5.21759 18.1419 5.21759 17.76V10.56C5.21759 10.4327 5.26816 10.3106 5.35818 10.2206C5.4482 10.1306 5.57029 10.08 5.69759 10.08H18.1776ZM14.9376 16.6368H12.12C12.0459 16.6368 11.9749 16.666 11.9223 16.7182C11.8697 16.7703 11.8398 16.8411 11.8392 16.9152V17.712C11.8386 17.7494 11.8453 17.7865 11.8591 17.8213C11.8729 17.856 11.8935 17.8877 11.9196 17.9145C11.9457 17.9413 11.9768 17.9626 12.0112 17.9773C12.0456 17.992 12.0826 17.9997 12.12 18H14.9376C14.9749 17.9997 15.0117 17.992 15.046 17.9772C15.0803 17.9625 15.1113 17.9412 15.1372 17.9144C15.1631 17.8876 15.1834 17.8558 15.1969 17.8211C15.2105 17.7864 15.2169 17.7493 15.216 17.712V16.9152C15.216 16.8414 15.1867 16.7705 15.1344 16.7183C15.0822 16.6661 15.0114 16.6368 14.9376 16.6368ZM14.9376 13.3992H8.79839C8.72433 13.3998 8.65353 13.4297 8.60138 13.4823C8.54924 13.5349 8.51999 13.6059 8.51999 13.68V15.576C8.51999 15.6498 8.54932 15.7206 8.60153 15.7728C8.65374 15.8251 8.72455 15.8544 8.79839 15.8544H14.9376C15.0114 15.8544 15.0822 15.8251 15.1344 15.7728C15.1867 15.7206 15.216 15.6498 15.216 15.576V13.68C15.216 13.6059 15.1867 13.5349 15.1346 13.4823C15.0825 13.4297 15.0116 13.3998 14.9376 13.3992ZM11.616 11.28H8.79839C8.72455 11.28 8.65374 11.3093 8.60153 11.3615C8.54932 11.4137 8.51999 11.4846 8.51999 11.5584V12.3552C8.52062 12.4288 8.55015 12.4993 8.60222 12.5514C8.6543 12.6034 8.72475 12.633 8.79839 12.6336H11.616C11.6899 12.633 11.7606 12.6035 11.813 12.5515C11.8655 12.4995 11.8955 12.429 11.8968 12.3552V11.5584C11.8962 11.4843 11.8663 11.4135 11.8137 11.3614C11.7611 11.3092 11.69 11.28 11.616 11.28Z" fill="white"/>
</svg>
