<svg width="24" height="24" viewBox="0 0 24 24" fill="none" xmlns="http://www.w3.org/2000/svg">
<path d="M19.2 17.088V17.76C19.2 18.552 18.552 19.2 17.76 19.2H6.23999C5.44799 19.2 4.79999 18.552 4.79999 17.76V17.088C4.79999 15.336 6.83999 14.28 8.75999 13.44C8.83199 13.416 8.87999 13.392 8.95199 13.344C9.09599 13.272 9.26399 13.272 9.40799 13.368C10.176 13.872 11.064 14.16 12 14.16C12.936 14.16 13.824 13.872 14.592 13.392C14.736 13.296 14.904 13.296 15.048 13.368C15.12 13.392 15.168 13.416 15.24 13.464C17.16 14.28 19.2 15.336 19.2 17.088Z" fill="white"/>
<path d="M12 12.72C13.975 12.72 15.576 10.947 15.576 8.75999C15.576 6.57294 13.975 4.79999 12 4.79999C10.025 4.79999 8.42398 6.57294 8.42398 8.75999C8.42398 10.947 10.025 12.72 12 12.72Z" fill="white"/>
</svg>
