<svg width="24" height="24" viewBox="0 0 24 24" fill="none" xmlns="http://www.w3.org/2000/svg">
<path d="M18.0824 3.63681H7.88315C6.85489 3.63681 5.96558 4.5817 5.96558 5.55438H5.32639C4.60382 5.55438 4.048 6.13799 4.048 6.86056C4.048 7.58312 4.60382 8.13894 5.32639 8.13894H5.96558V10.7235H5.32639C4.60382 10.7235 4.048 11.2793 4.048 12.0019C4.048 12.7244 4.60382 13.2803 5.32639 13.2803H5.96558V15.8648H5.32639C4.60382 15.8648 4.048 16.4484 4.048 17.1432C4.048 17.8658 4.60382 18.4216 5.32639 18.4216H5.96558C5.96558 19.7 6.85489 20.3392 7.88315 20.3392H18.0824C19.1107 20.3392 20 19.4499 20 18.4216V5.55438C19.9722 4.52612 19.1107 3.63681 18.0824 3.63681ZM9.21712 12.0853L9.80073 11.5016C9.96747 11.3349 10.2176 11.3349 10.3843 11.5016L11.8295 12.919L15.3867 9.38953C15.5535 9.22279 15.8036 9.22279 15.9703 9.38953L16.5539 9.97314C16.6929 10.1399 16.6929 10.4178 16.5539 10.5568L12.3853 14.6698C12.2185 14.8366 12.024 14.8921 11.8017 14.8921C11.5793 14.8921 11.3848 14.8366 11.2181 14.6698L9.21712 12.6689C9.02258 12.5021 9.02258 12.252 9.21712 12.0853Z" fill="white"/>
</svg>
