<svg width="24" height="24" viewBox="0 0 24 24" fill="none" xmlns="http://www.w3.org/2000/svg">
    <path d="M18.5637 13.4583H17.6887C17.575 13.4606 17.4665 13.5059 17.385 13.5852C17.3036 13.6645 17.2553 13.7718 17.25 13.8853V16.802C17.2476 16.9172 17.201 17.0271 17.1197 17.1088C17.0385 17.1904 16.9289 17.2377 16.8137 17.2407H7.18867C7.07387 17.2377 6.9646 17.1908 6.8834 17.1096C6.8022 17.0284 6.75529 16.9191 6.75233 16.8043L6.75233 13.8853C6.74938 13.7705 6.70246 13.6613 6.62127 13.5801C6.54007 13.4989 6.43079 13.452 6.316 13.449H5.43867C5.32347 13.4514 5.21361 13.498 5.13191 13.5793C5.05022 13.6605 5.00298 13.7701 5 13.8853L5 17.8333C5 18.1428 5.12292 18.4395 5.34171 18.6583C5.5605 18.8771 5.85725 19 6.16667 19H17.8333C18.1428 19 18.4395 18.8771 18.6583 18.6583C18.8771 18.4395 19 18.1428 19 17.8333V13.8853C18.9947 13.7722 18.9468 13.6652 18.8658 13.586C18.7849 13.5068 18.6769 13.4612 18.5637 13.4583ZM11.7083 14.3833C11.7478 14.4251 11.7954 14.4583 11.8481 14.481C11.9009 14.5037 11.9577 14.5155 12.0152 14.5155C12.0726 14.5155 12.1294 14.5037 12.1822 14.481C12.235 14.4583 12.2825 14.4251 12.322 14.3833L16.2583 10.4447C16.3001 10.4052 16.3333 10.3576 16.356 10.3049C16.3787 10.2521 16.3905 10.1953 16.3905 10.1378C16.3905 10.0804 16.3787 10.0236 16.356 9.9708C16.3333 9.91804 16.3001 9.87047 16.2583 9.831L15.647 9.21733C15.6076 9.17597 15.5601 9.14304 15.5076 9.12053C15.4551 9.09803 15.3985 9.08643 15.3413 9.08643C15.2842 9.08643 15.2276 9.09803 15.1751 9.12053C15.1225 9.14304 15.0751 9.17597 15.0357 9.21733L13.4023 10.8507C13.3616 10.8911 13.3097 10.9186 13.2534 10.9297C13.1971 10.9408 13.1387 10.935 13.0856 10.9131C13.0326 10.8912 12.9871 10.8541 12.9551 10.8064C12.923 10.7588 12.9057 10.7028 12.9053 10.6453V4.43633C12.8864 4.3224 12.8304 4.21789 12.746 4.13901C12.6616 4.06013 12.5536 4.01127 12.4387 4H11.5637C11.4485 4.00298 11.3389 4.05022 11.2576 4.13191C11.1764 4.21361 11.1297 4.32347 11.1273 4.43867V10.622C11.127 10.6794 11.1097 10.7355 11.0776 10.7831C11.0455 10.8307 11.0001 10.8678 10.947 10.8898C10.894 10.9117 10.8356 10.9175 10.7793 10.9064C10.7229 10.8953 10.6711 10.8678 10.6303 10.8273L8.997 9.194C8.95753 9.15227 8.90996 9.11903 8.8572 9.09631C8.80445 9.07359 8.74761 9.06187 8.69017 9.06187C8.63273 9.06187 8.57589 9.07359 8.52313 9.09631C8.47037 9.11903 8.4228 9.15227 8.38333 9.194L7.76967 9.83567C7.72793 9.87514 7.69469 9.92271 7.67197 9.97546C7.64926 10.0282 7.63754 10.0851 7.63754 10.1425C7.63754 10.1999 7.64926 10.2568 7.67197 10.3095C7.69469 10.3623 7.72793 10.4099 7.76967 10.4493L11.7083 14.3833Z" fill="white"/>
</svg>
