<svg width="24" height="24" viewBox="0 0 24 24" fill="none" xmlns="http://www.w3.org/2000/svg">
<path d="M4.99206 12.9122H14.9521C15.2161 12.9122 15.3361 13.2482 15.1681 13.4162L12.2881 16.2962C12.0961 16.4882 12.0961 16.7522 12.2881 16.9202L12.9601 17.5922C13.1521 17.7842 13.4161 17.7842 13.5841 17.5922L18.8401 12.3122C19.0321 12.1202 19.0321 11.8562 18.8401 11.6882L13.5601 6.40816C13.3681 6.21616 13.1041 6.21616 12.9361 6.40816L12.3121 7.03216C12.1201 7.22416 12.1201 7.48816 12.3121 7.65616L15.1921 10.5362C15.3841 10.7522 15.2641 11.0882 14.9761 11.0882H5.01606C4.77606 11.0882 4.56006 11.2802 4.56006 11.5202V12.4322C4.56006 12.6722 4.75206 12.9122 4.99206 12.9122Z" fill="white"/>
</svg>
