<svg width="40" height="40" viewBox="0 0 40 40" fill="none" xmlns="http://www.w3.org/2000/svg">
<path d="M27.0079 19.0883L17.0479 19.0883C16.7839 19.0883 16.6639 18.7523 16.8319 18.5843L19.7119 15.7043C19.9039 15.5123 19.9039 15.2483 19.7119 15.0803L19.0399 14.4083C18.8479 14.2163 18.5839 14.2163 18.4159 14.4083L13.1599 19.6883C12.9679 19.8803 12.9679 20.1443 13.1599 20.3123L18.4399 25.5923C18.6319 25.7843 18.8959 25.7843 19.0639 25.5923L19.6879 24.9683C19.8799 24.7763 19.8799 24.5123 19.6879 24.3443L16.8079 21.4643C16.6159 21.2483 16.7359 20.9123 17.0239 20.9123L26.9839 20.9123C27.2239 20.9123 27.4399 20.7203 27.4399 20.4803L27.4399 19.5683C27.4399 19.3283 27.2479 19.0883 27.0079 19.0883Z" fill="white"/>
</svg>
