<svg width="32" height="32" viewBox="0 0 32 32" fill="none" xmlns="http://www.w3.org/2000/svg">
<path d="M16.1191 17.0349L19.5585 20.4592C19.6792 20.5799 19.8605 20.5796 19.9967 20.4584L20.4357 20.0496C20.5568 19.9285 20.5571 19.7472 20.4365 19.6114L16.982 16.1569C16.9066 16.0815 16.9069 15.9455 16.9825 15.8698L20.4644 12.4181C20.5855 12.297 20.5858 12.1156 20.4652 11.9799L20.0277 11.5424C19.907 11.4217 19.7257 11.422 19.5895 11.5432L16.1378 14.9948C16.0622 15.0705 15.9261 15.0708 15.8507 14.9953L12.3962 11.556C12.2756 11.4353 12.0942 11.4356 11.958 11.5568L11.519 11.9958C11.3979 12.1169 11.3975 12.2982 11.5182 12.434L14.9576 15.8734C15.033 15.9488 15.0327 16.0848 14.957 16.1605L11.5357 19.5819C11.4146 19.703 11.4143 19.8843 11.5349 20.0201L11.9724 20.4576C12.093 20.5783 12.2744 20.578 12.4106 20.4568L15.832 17.0355C15.9228 16.9446 16.0437 16.9444 16.1191 17.0349Z" fill="white"/>
<path d="M11.5357 19.5819C11.4297 19.6879 11.4166 19.8398 11.4957 19.9671L11.5349 20.0201L11.9724 20.4576C12.093 20.5783 12.2744 20.578 12.4106 20.4568L15.832 17.0355C15.9113 16.9563 16.0137 16.9463 16.0884 17.0054L16.1191 17.0349L19.5585 20.4592C19.6642 20.5649 19.8167 20.578 19.9444 20.4981L19.9967 20.4584L20.4357 20.0496C20.5568 19.9285 20.5571 19.7472 20.4365 19.6114L16.982 16.1569L16.9571 16.1257C16.915 16.0593 16.9155 15.9678 16.9578 15.9012L16.9825 15.8698L20.4644 12.4181C20.5855 12.297 20.5858 12.1156 20.4652 11.9799L20.0277 11.5424L20.3111 11.2595L20.7564 11.7049L20.764 11.7139C21.0117 11.9925 21.0325 12.4163 20.7475 12.7013L20.7461 12.7027L17.4053 16.0145L20.7274 19.3367L20.735 19.3456L20.8179 19.4561C20.9838 19.7276 20.9682 20.083 20.7192 20.3324L20.7136 20.3379L20.7081 20.3421L20.2689 20.7509L20.2627 20.7571C19.9855 21.0036 19.5622 21.0275 19.2759 20.7412V20.7426L15.9766 17.457L12.6855 20.7481L12.6765 20.7557C12.3993 21.0022 11.9753 21.0268 11.689 20.7405L11.2436 20.2951L11.2361 20.2861C10.9884 20.0074 10.9676 19.5837 11.2526 19.2987L14.5347 16.0166L11.2271 12.7089L11.2195 12.6999C11.0028 12.4561 10.9598 12.1014 11.1435 11.8257L11.2361 11.7125L11.6828 11.2657L11.6918 11.2581L11.803 11.1759C12.0734 11.0104 12.4282 11.0227 12.6786 11.2726L15.9938 14.5727L19.3146 11.2519L19.3236 11.2443C19.6008 10.9978 20.0248 10.9732 20.3111 11.2595L20.0277 11.5424C19.907 11.4217 19.7257 11.422 19.5895 11.5432L16.1378 14.9948L16.1071 15.0201C16.0293 15.0698 15.9167 15.0613 15.8507 14.9953L12.3962 11.556L12.3478 11.5164C12.2304 11.4375 12.0771 11.4509 11.958 11.5568L11.519 11.9958C11.4129 12.1018 11.3992 12.2542 11.4784 12.3816L11.5182 12.434L14.9576 15.8734C15.033 15.9488 15.0327 16.0848 14.957 16.1605L11.5357 19.5819Z" fill="white"/>
</svg>
