<svg width="24" height="24" viewBox="0 0 24 24" fill="none" xmlns="http://www.w3.org/2000/svg">
    <path d="M17.8555 7.1998L14.1115 7.1998V5.9998C14.1115 5.3518 13.5835 4.7998 12.9115 4.7998H11.1115C10.4635 4.7998 9.9115 5.3278 9.9115 5.9998V7.1998H6.1435C5.9035 7.1998 5.6875 7.4158 5.6875 7.6558L5.6875 8.5438C5.6875 8.7838 5.9035 8.9998 6.1435 8.9998L17.8315 8.9998C18.0715 8.9998 18.2875 8.7838 18.2875 8.5438V7.6558C18.2875 7.4158 18.0955 7.1998 17.8555 7.1998ZM12.8635 7.1998L11.0875 7.1998V6.3118C11.0875 6.1438 11.2075 6.0238 11.3755 6.0238H12.5755C12.7435 6.0238 12.8635 6.1438 12.8635 6.3118V7.1998Z" fill="white"/>
    <path d="M16.6557 10.2002L7.3437 10.2002C7.1037 10.2002 6.8877 10.4162 6.8877 10.6562L6.8877 17.7122C6.8877 18.5522 7.5357 19.2002 8.3757 19.2002H15.5757C16.4157 19.2002 17.0637 18.5522 17.0637 17.7122V10.6562C17.0877 10.4162 16.8957 10.2002 16.6557 10.2002Z" fill="white"/>
</svg>
