<svg width="40" height="40" viewBox="0 0 40 40" fill="none" xmlns="http://www.w3.org/2000/svg">
<path fill-rule="evenodd" clip-rule="evenodd" d="M14.0091 23.6524L13.0353 26.2493C12.9979 26.3493 12.99 26.4579 13.0127 26.5622C13.0353 26.6664 13.0875 26.762 13.163 26.8374C13.2385 26.9128 13.3341 26.9649 13.4384 26.9874C13.5427 27.01 13.6513 27.002 13.7512 26.9645L16.3475 25.9907C16.6446 25.8794 16.9145 25.7058 17.139 25.4815L24.6594 17.9612C24.6594 17.9612 24.3971 17.1748 23.6115 16.3885C22.8258 15.6029 22.0387 15.3405 22.0387 15.3405L14.5183 22.8609C14.294 23.0854 14.1204 23.3552 14.0091 23.6524ZM23.0875 14.2918L24.1125 13.2668C24.2963 13.083 24.5416 12.9659 24.798 13.0089C25.159 13.0682 25.7111 13.2475 26.2314 13.7686C26.7525 14.2896 26.9318 14.841 26.9911 15.2019C27.0341 15.4584 26.917 15.7037 26.7332 15.8875L25.7074 16.9125C25.7074 16.9125 25.4458 16.1269 24.6594 15.3413C23.8738 14.5542 23.0875 14.2918 23.0875 14.2918Z" fill="white"/>
</svg>
