<svg width="16" height="17" viewBox="0 0 16 17" fill="none" xmlns="http://www.w3.org/2000/svg">
<path d="M4.55987 8.52789C3.85912 8.27857 3.50875 8.15386 3.40436 7.96479C3.31389 7.80091 3.30966 7.60304 3.39303 7.43547C3.48925 7.24208 3.83398 7.10254 4.52343 6.82348L11.0221 4.19309C11.7011 3.91824 12.0406 3.78082 12.2551 3.85128C12.4412 3.91244 12.5872 4.05845 12.6484 4.24462C12.7189 4.45904 12.5815 4.7984 12.3069 5.47698L12.3066 5.47765L9.67623 11.9763C9.39717 12.6657 9.25764 13.0105 9.06422 13.1067C8.89666 13.1901 8.69879 13.1858 8.53491 13.0954C8.34585 12.9909 8.22114 12.6406 7.97181 11.9398L7.20841 9.79439C7.15992 9.65807 7.13567 9.58989 7.09603 9.533C7.06096 9.48253 7.01717 9.43875 6.96671 9.40367C6.9098 9.36404 6.84163 9.33979 6.7053 9.29129L4.55987 8.52789Z" fill="white"/>
</svg>
