<svg width="24" height="24" viewBox="0 0 24 24" fill="none" xmlns="http://www.w3.org/2000/svg">
    <path d="M5.96 5.51953L16.52 5.51953C17.048 5.51953 17.48 5.95153 17.48 6.47953V7.43953C17.48 7.96753 17.048 8.39953 16.52 8.39953L5.96 8.39953C5.432 8.39953 5 7.96753 5 7.43953V6.47953C5 5.95153 5.432 5.51953 5.96 5.51953Z" fill="white"/>
    <path d="M5.96 9.83984H11.96C12.488 9.83984 12.92 10.2718 12.92 10.7998V11.7598C12.92 12.2878 12.488 12.7198 11.96 12.7198H5.96C5.432 12.7198 5 12.2878 5 11.7598V10.7998C5 10.2718 5.432 9.83984 5.96 9.83984Z" fill="white"/>
    <path d="M5.96 14.2617H10C10.528 14.2617 10.96 14.6937 10.96 15.2217V16.1817C10.96 16.7097 10.528 17.1417 10 17.1417H5.96C5.432 17.1417 5 16.7097 5 16.1817V15.2217C5 14.6937 5.432 14.2617 5.96 14.2617Z" fill="white"/>
</svg>
