<svg width="40" height="41" viewBox="0 0 40 41" fill="none" xmlns="http://www.w3.org/2000/svg">
<path d="M25.8926 15.4402C26.1059 15.4402 26.3192 15.3589 26.4817 15.196L27.6605 14.0173C27.9859 13.6918 27.9859 13.1643 27.6605 12.8389C27.3351 12.5135 26.8072 12.5135 26.4822 12.8389L25.3034 14.0177C24.978 14.3431 24.978 14.8706 25.3034 15.196C25.4659 15.3589 25.6792 15.4402 25.8926 15.4402ZM12.5001 20.4993C12.5001 20.0393 12.1267 19.666 11.6667 19.666H10.0001C9.54008 19.666 9.16675 20.0393 9.16675 20.4993C9.16675 20.9593 9.54008 21.3327 10.0001 21.3327H11.6667C12.1267 21.3327 12.5001 20.9593 12.5001 20.4993ZM13.5184 25.8027L12.3397 26.9814C12.0142 27.3068 12.0142 27.8343 12.3397 28.1598C12.5022 28.3227 12.7155 28.4039 12.9288 28.4039C13.1422 28.4039 13.3555 28.3227 13.518 28.1598L14.6967 26.981C15.0222 26.6556 15.0222 26.1281 14.6967 25.8027C14.3717 25.4773 13.8434 25.4773 13.5184 25.8027ZM13.5184 15.196C13.6809 15.3589 13.8942 15.4402 14.1076 15.4402C14.3209 15.4402 14.5342 15.3589 14.6967 15.196C15.0222 14.8706 15.0222 14.3431 14.6967 14.0177L13.518 12.8389C13.193 12.5135 12.6647 12.5135 12.3397 12.8389C12.0142 13.1643 12.0142 13.6918 12.3397 14.0173L13.5184 15.196ZM20.0001 12.9993C20.4601 12.9993 20.8334 12.626 20.8334 12.166V10.4993C20.8334 10.0393 20.4601 9.66602 20.0001 9.66602C19.5401 9.66602 19.1667 10.0393 19.1667 10.4993V12.166C19.1667 12.626 19.5401 12.9993 20.0001 12.9993ZM30.0001 19.666H28.3334C27.8734 19.666 27.5001 20.0393 27.5001 20.4993C27.5001 20.9593 27.8734 21.3327 28.3334 21.3327H30.0001C30.4601 21.3327 30.8334 20.9593 30.8334 20.4993C30.8334 20.0393 30.4601 19.666 30.0001 19.666ZM26.4817 25.8027C26.1567 25.4773 25.6284 25.4773 25.3034 25.8027C24.978 26.1281 24.978 26.6556 25.3034 26.981L26.4822 28.1598C26.6447 28.3227 26.858 28.4039 27.0713 28.4039C27.2847 28.4039 27.4976 28.3227 27.6605 28.1598C27.9859 27.8343 27.9859 27.3068 27.6605 26.9814L26.4817 25.8027ZM20.0001 27.9993C19.5401 27.9993 19.1667 28.3727 19.1667 28.8327V30.4993C19.1667 30.9593 19.5401 31.3327 20.0001 31.3327C20.4601 31.3327 20.8334 30.9593 20.8334 30.4993V28.8327C20.8334 28.3727 20.4601 27.9993 20.0001 27.9993ZM20.0001 14.666C16.7834 14.666 14.1667 17.2827 14.1667 20.4993C14.1667 23.716 16.7834 26.3327 20.0001 26.3327C23.2167 26.3327 25.8334 23.716 25.8334 20.4993C25.8334 17.2827 23.2167 14.666 20.0001 14.666ZM20.0001 24.666C17.7026 24.666 15.8334 22.7968 15.8334 20.4993C15.8334 18.2018 17.7026 16.3327 20.0001 16.3327C22.2976 16.3327 24.1667 18.2018 24.1667 20.4993C24.1667 22.7968 22.2976 24.666 20.0001 24.666Z" fill="white"/>
</svg>
