<svg width="24" height="24" viewBox="0 0 24 24" fill="none" xmlns="http://www.w3.org/2000/svg">
    <path d="M18.1989 5H14.0733C13.755 5 13.4498 5.12643 13.2248 5.35147C12.9997 5.57652 12.8733 5.88174 12.8733 6.2V10.28C12.8733 10.5983 12.9997 10.9035 13.2248 11.1285C13.4498 11.3536 13.755 11.48 14.0733 11.48H18.1989C18.5172 11.48 18.8224 11.3536 19.0474 11.1285C19.2725 10.9035 19.3989 10.5983 19.3989 10.28V6.2C19.3989 5.88174 19.2725 5.57652 19.0474 5.35147C18.8224 5.12643 18.5172 5 18.1989 5ZM17.9589 6.44V10.04H14.3157V6.44H17.9589Z" fill="white"/>
    <path d="M5.93031 13C5.8257 13.0051 5.72733 13.0519 5.65675 13.1303C5.58616 13.2087 5.54911 13.3122 5.5537 13.4181L5.53439 14.2764C5.53629 14.3815 5.57884 14.4816 5.65288 14.5552C5.72692 14.6288 5.82655 14.6701 5.93031 14.6701H7.42707C7.46382 14.6686 7.50046 14.6751 7.53458 14.689C7.56869 14.7029 7.59952 14.7239 7.62503 14.7508C7.65429 14.7764 7.6781 14.8077 7.69501 14.8429C7.71191 14.8782 7.72156 14.9165 7.72337 14.9556C7.72518 14.9947 7.7191 15.0338 7.70552 15.0705C7.69193 15.1072 7.67112 15.1406 7.64435 15.1689L4.12936 18.7071C4.05078 18.7811 4.00436 18.8837 4.00029 18.9923C3.99622 19.1009 4.03482 19.2067 4.10763 19.2866L4.70392 19.8857C4.79053 19.9562 4.89744 19.9962 5.0085 19.9997C5.11955 20.0033 5.22873 19.9701 5.31953 19.9052L8.86349 16.3475C8.90108 16.3103 8.95097 16.2885 9.00351 16.2863C9.08185 16.2778 9.16047 16.2998 9.2233 16.348C9.28612 16.3962 9.3284 16.4668 9.34149 16.5455L9.3608 17.8219C9.36144 17.9279 9.40343 18.0292 9.47761 18.1039C9.55179 18.1786 9.65213 18.2205 9.75672 18.2205L10.6113 18.2425C10.7149 18.24 10.8134 18.1967 10.8859 18.1218C10.9585 18.0469 10.9994 17.9464 11 17.8415V13.4401C10.9994 13.3336 10.9571 13.2316 10.8825 13.1564C10.8078 13.0813 10.7069 13.0391 10.6017 13.0391L5.93031 13Z" fill="white"/>
</svg>
